<?xml version="1.0" encoding="utf-8"?>
<!-- Generator: Adobe Illustrator 29.8.2, SVG Export Plug-In . SVG Version: 9.03 Build 0)  -->
<svg version="1.0" id="Camada_1" xmlns="http://www.w3.org/2000/svg" xmlns:xlink="http://www.w3.org/1999/xlink" x="0px" y="0px"
	 viewBox="0 0 1080 629.83" style="enable-background:new 0 0 1080 629.83;" xml:space="preserve">
<style type="text/css">
	.st0{fill:#FFFFFF;}
	.st1{fill-rule:evenodd;clip-rule:evenodd;fill:#1B1916;}
	.st2{fill-rule:evenodd;clip-rule:evenodd;fill:#FFFFFF;}
	.st3{fill:#BD192B;}
	.st4{fill:#DA5F06;}
	.st5{fill-rule:evenodd;clip-rule:evenodd;fill:#BD192B;}
	.st6{fill:#009ED0;}
	.st7{fill-rule:evenodd;clip-rule:evenodd;fill:#E20613;}
	.st8{fill-rule:evenodd;clip-rule:evenodd;fill:#1D1D1B;}
</style>
<g>
	<path class="st2" d="M0,298.87l76.95-79.1c0,0,39.9-8.89,112.58-10.66c72.67-1.78,317.77-8.89,457.42-34.67
		c139.65-25.78,257.93-63.1,431.77-31.11l-80.53,71.36c0,0-12.85-38.22-115.45-32.88c-102.6,5.33-379.71,31.74-459.51,107.28
		c-79.8,75.55-131.1,209.75-131.1,209.75H111.15c0,0,73.43-58.42,130.31-149.2c15.21-24.26,38.5-54.13,47.81-81.88L49.88,291.75
		L0,298.87z"/>
	<path class="st2" d="M378.8,498.84l75.13-176.2h64.62l-12.48,120.21l89.58-120.21h64.77l-75.13,176.2h-40.07l59.14-138.7
		l-101.61,138.7h-41.57l16.83-138.7l-59.15,138.7H378.8L378.8,498.84z M837.6,498.84l-10.49-176.2h-45.65l-158.41,176.2h45.8
		l34.69-40.03h85.48l1.59,40.03H837.6L837.6,498.84z M787.82,425.1h-58.35l56.76-65.4L787.82,425.1L787.82,425.1z M1011.68,431.08
		l37.16,10.91c-14.63,19.24-31.36,33.53-50.29,42.87c-18.85,9.32-39.81,13.99-62.76,13.99c-28.38,0-48.34-7.99-59.78-23.96
		c-11.46-15.99-11.28-37.87,0.53-65.56c12.51-29.33,31.42-52.1,56.72-68.34c25.27-16.22,52.89-24.33,82.86-24.33
		c26.13,0,44.6,6.4,55.57,19.13c6.49,7.54,9.2,18.33,8.06,32.44l-46.35,8.42c1.41-9.15-0.81-16.37-6.59-21.67
		c-5.77-5.27-14.4-7.91-25.84-7.91c-15.83,0-30.71,4.69-44.58,14.08c-13.83,9.35-25.25,24.53-34.2,45.53
		c-9.49,22.27-11.39,38.14-5.7,47.58c5.7,9.47,16.3,14.2,31.83,14.2c11.5,0,22.63-3.01,33.46-9.02
		C992.58,453.43,1002.56,443.97,1011.68,431.08z"/>
</g>
</svg>
